<svg xmlns="http://www.w3.org/2000/svg" width="512" height="512" viewBox="0 0 512 512" role="img" aria-label="Libreria Belen">
  <defs>
    <linearGradient id="bg" x1="0" y1="0" x2="1" y2="1">
      <stop offset="0" stop-color="#0D615A"/>
      <stop offset="1" stop-color="#0A4F49"/>
    </linearGradient>
  </defs>
  <rect width="512" height="512" rx="120" fill="url(#bg)"/>
  <circle cx="256" cy="256" r="172" fill="#F9F8F6"/>
  <path d="M180 170h130c44 0 72 22 72 56 0 22-12 40-32 48 26 8 42 28 42 54 0 38-30 64-78 64H180V170zm118 90c18 0 30-10 30-26 0-16-12-26-30-26h-40v52h40zm12 96c20 0 34-12 34-30 0-18-14-30-34-30h-52v60h52z" fill="#0D615A"/>
</svg>
